<?xml version="1.0" standalone="no"?><!DOCTYPE svg PUBLIC "-//W3C//DTD SVG 1.1//EN" "http://www.w3.org/Graphics/SVG/1.1/DTD/svg11.dtd"><svg t="1742795516201" class="icon" viewBox="0 0 1024 1024" version="1.1" xmlns="http://www.w3.org/2000/svg" p-id="18793" xmlns:xlink="http://www.w3.org/1999/xlink" width="64" height="64"><path d="M374.080086 472.575705L125.632241 696.959564A281.407824 281.407824 0 0 0 403.392068 1023.99936a280.127825 280.127825 0 0 0 228.671857-117.567927l42.239974-222.46386-51.391968-97.983939-248.831845-113.407929z" fill="#24BBB1" p-id="18794"></path><path d="M307.648128 377.599764l-182.783886-49.215969A180.031887 180.031887 0 0 0 6.400316 490.623693a179.007888 179.007888 0 0 0 92.095942 160.6399L337.792109 447.35972l-30.079981-69.759956z" fill="#17A8E0" p-id="18795"></path><path d="M891.711763 280.319825A280.575825 280.575825 0 0 0 611.519938 0a279.615825 279.615825 0 0 0-227.071858 116.479927l-43.391973 224.31986 44.671972 95.42394 247.423845 112.63993 255.039841-223.74386c2.367999-15.55199 3.519998-30.335981 3.519998-44.799972z" fill="#FED10A" p-id="18796"></path><path d="M706.943878 682.047574l-21.503986 209.599869a149.887906 149.887906 0 0 0 174.59189-42.111974 148.479907 148.479907 0 0 0 33.983979-109.695931 144.70391 144.70391 0 0 0-6.271996-31.807981l-180.799887-25.983983z" fill="#93C83E" p-id="18797"></path><path d="M317.312122 314.047804l37.119976-207.103871c-21.183987-11.391993-44.863972-17.151989-68.863956-16.895989-80.63995 0.704-145.599909 68.607957-144.83191 151.423905 0.064 10.815993 1.279999 21.503987 3.519998 31.99998l173.055892 40.575975z" fill="#EF5098" p-id="18798"></path><path d="M921.087744 355.583778l-238.527851 208.959869 36.991977 70.527956 185.215885 43.199973a177.279889 177.279889 0 0 0 113.087929-164.863897 177.599889 177.599889 0 0 0-96.76794-157.823901z" fill="#0779A1" p-id="18799"></path></svg>